<mxfile host="app.diagrams.net" modified="2024-04-04T16:30:05.058Z" agent="Mozilla/5.0 (Windows NT 10.0; Win64; x64) AppleWebKit/537.36 (KHTML, like Gecko) Chrome/123.0.0.0 Safari/537.36" etag="ubcd2MQjItBq31ejPNKr" version="24.2.1" type="github">
  <diagram name="Page-1" id="RgmAbmVbI51hA4nQIdbu">
    <mxGraphModel dx="768" dy="379" grid="1" gridSize="10" guides="1" tooltips="1" connect="1" arrows="1" fold="1" page="1" pageScale="1" pageWidth="850" pageHeight="1100" math="0" shadow="0">
      <root>
        <mxCell id="0" />
        <mxCell id="1" parent="0" />
        <mxCell id="xfQhk3VoaluE6TStIVvt-17" value="" style="edgeStyle=orthogonalEdgeStyle;rounded=0;orthogonalLoop=1;jettySize=auto;html=1;" edge="1" parent="1" source="xfQhk3VoaluE6TStIVvt-1" target="xfQhk3VoaluE6TStIVvt-14">
          <mxGeometry relative="1" as="geometry" />
        </mxCell>
        <mxCell id="xfQhk3VoaluE6TStIVvt-1" value="&lt;b&gt;&lt;font style=&quot;font-size: 14px;&quot;&gt;RYT SDK&lt;/font&gt;&lt;/b&gt;" style="shape=process;whiteSpace=wrap;html=1;backgroundOutline=1;" vertex="1" parent="1">
          <mxGeometry x="365" y="230" width="120" height="60" as="geometry" />
        </mxCell>
        <mxCell id="xfQhk3VoaluE6TStIVvt-8" style="edgeStyle=orthogonalEdgeStyle;rounded=0;orthogonalLoop=1;jettySize=auto;html=1;entryX=0.5;entryY=0;entryDx=0;entryDy=0;" edge="1" parent="1" source="xfQhk3VoaluE6TStIVvt-2" target="xfQhk3VoaluE6TStIVvt-1">
          <mxGeometry relative="1" as="geometry">
            <Array as="points">
              <mxPoint x="100" y="170" />
              <mxPoint x="425" y="170" />
            </Array>
          </mxGeometry>
        </mxCell>
        <mxCell id="xfQhk3VoaluE6TStIVvt-2" value="Wallet &lt;br&gt;management" style="rounded=1;whiteSpace=wrap;html=1;" vertex="1" parent="1">
          <mxGeometry x="40" y="50" width="120" height="60" as="geometry" />
        </mxCell>
        <mxCell id="xfQhk3VoaluE6TStIVvt-9" style="edgeStyle=orthogonalEdgeStyle;rounded=0;orthogonalLoop=1;jettySize=auto;html=1;entryX=0.5;entryY=0;entryDx=0;entryDy=0;" edge="1" parent="1" source="xfQhk3VoaluE6TStIVvt-3" target="xfQhk3VoaluE6TStIVvt-1">
          <mxGeometry relative="1" as="geometry">
            <Array as="points">
              <mxPoint x="230" y="170" />
              <mxPoint x="425" y="170" />
            </Array>
          </mxGeometry>
        </mxCell>
        <mxCell id="xfQhk3VoaluE6TStIVvt-3" value="Transaction&lt;br&gt;management" style="rounded=1;whiteSpace=wrap;html=1;" vertex="1" parent="1">
          <mxGeometry x="170" y="50" width="120" height="60" as="geometry" />
        </mxCell>
        <mxCell id="xfQhk3VoaluE6TStIVvt-10" style="edgeStyle=orthogonalEdgeStyle;rounded=0;orthogonalLoop=1;jettySize=auto;html=1;entryX=0.5;entryY=0;entryDx=0;entryDy=0;" edge="1" parent="1" source="xfQhk3VoaluE6TStIVvt-4" target="xfQhk3VoaluE6TStIVvt-1">
          <mxGeometry relative="1" as="geometry">
            <Array as="points">
              <mxPoint x="360" y="170" />
              <mxPoint x="425" y="170" />
            </Array>
          </mxGeometry>
        </mxCell>
        <mxCell id="xfQhk3VoaluE6TStIVvt-4" value="&lt;span style=&quot;white-space-collapse: preserve;&quot;&gt;&lt;font style=&quot;font-size: 12px;&quot; face=&quot;Helvetica&quot;&gt;Provider&lt;/font&gt;&lt;/span&gt;" style="rounded=1;whiteSpace=wrap;html=1;" vertex="1" parent="1">
          <mxGeometry x="300" y="50" width="120" height="60" as="geometry" />
        </mxCell>
        <mxCell id="xfQhk3VoaluE6TStIVvt-11" style="edgeStyle=orthogonalEdgeStyle;rounded=0;orthogonalLoop=1;jettySize=auto;html=1;entryX=0.5;entryY=0;entryDx=0;entryDy=0;" edge="1" parent="1" source="xfQhk3VoaluE6TStIVvt-5" target="xfQhk3VoaluE6TStIVvt-1">
          <mxGeometry relative="1" as="geometry">
            <Array as="points">
              <mxPoint x="490" y="170" />
              <mxPoint x="425" y="170" />
            </Array>
          </mxGeometry>
        </mxCell>
        <mxCell id="xfQhk3VoaluE6TStIVvt-5" value="&lt;span id=&quot;docs-internal-guid-2b0c5f49-7fff-e697-5f8d-0764dbf99335&quot;&gt;&lt;span style=&quot;background-color: transparent; font-variant-numeric: normal; font-variant-east-asian: normal; font-variant-alternates: normal; font-variant-position: normal; vertical-align: baseline; white-space-collapse: preserve;&quot;&gt;&lt;font style=&quot;font-size: 12px;&quot; face=&quot;Helvetica&quot;&gt;Event Handling&lt;/font&gt;&lt;/span&gt;&lt;/span&gt;" style="rounded=1;whiteSpace=wrap;html=1;" vertex="1" parent="1">
          <mxGeometry x="430" y="50" width="120" height="60" as="geometry" />
        </mxCell>
        <mxCell id="xfQhk3VoaluE6TStIVvt-12" style="edgeStyle=orthogonalEdgeStyle;rounded=0;orthogonalLoop=1;jettySize=auto;html=1;entryX=0.5;entryY=0;entryDx=0;entryDy=0;" edge="1" parent="1" source="xfQhk3VoaluE6TStIVvt-6" target="xfQhk3VoaluE6TStIVvt-1">
          <mxGeometry relative="1" as="geometry">
            <Array as="points">
              <mxPoint x="620" y="170" />
              <mxPoint x="425" y="170" />
            </Array>
          </mxGeometry>
        </mxCell>
        <mxCell id="xfQhk3VoaluE6TStIVvt-6" value="&lt;span id=&quot;docs-internal-guid-fc7b406d-7fff-1b1f-aa44-26fef9991192&quot;&gt;&lt;span style=&quot;background-color: transparent; font-variant-numeric: normal; font-variant-east-asian: normal; font-variant-alternates: normal; font-variant-position: normal; vertical-align: baseline; white-space-collapse: preserve;&quot;&gt;&lt;font style=&quot;font-size: 12px;&quot; face=&quot;Helvetica&quot;&gt;JSON-RPC&lt;/font&gt;&lt;/span&gt;&lt;/span&gt;" style="rounded=1;whiteSpace=wrap;html=1;" vertex="1" parent="1">
          <mxGeometry x="560" y="50" width="120" height="60" as="geometry" />
        </mxCell>
        <mxCell id="xfQhk3VoaluE6TStIVvt-13" style="edgeStyle=orthogonalEdgeStyle;rounded=0;orthogonalLoop=1;jettySize=auto;html=1;entryX=0.5;entryY=0;entryDx=0;entryDy=0;" edge="1" parent="1" source="xfQhk3VoaluE6TStIVvt-7" target="xfQhk3VoaluE6TStIVvt-1">
          <mxGeometry relative="1" as="geometry">
            <Array as="points">
              <mxPoint x="750" y="170" />
              <mxPoint x="425" y="170" />
            </Array>
          </mxGeometry>
        </mxCell>
        <mxCell id="xfQhk3VoaluE6TStIVvt-7" value="&lt;span id=&quot;docs-internal-guid-a87849ef-7fff-4aee-8872-d2432cc4f671&quot;&gt;&lt;span style=&quot;background-color: transparent; font-variant-numeric: normal; font-variant-east-asian: normal; font-variant-alternates: normal; font-variant-position: normal; vertical-align: baseline; white-space-collapse: preserve;&quot;&gt;&lt;font style=&quot;font-size: 12px;&quot;&gt;Utilities &lt;/font&gt;&lt;/span&gt;&lt;/span&gt;" style="rounded=1;whiteSpace=wrap;html=1;" vertex="1" parent="1">
          <mxGeometry x="690" y="50" width="120" height="60" as="geometry" />
        </mxCell>
        <mxCell id="xfQhk3VoaluE6TStIVvt-20" style="edgeStyle=orthogonalEdgeStyle;rounded=0;orthogonalLoop=1;jettySize=auto;html=1;entryX=0;entryY=0.5;entryDx=0;entryDy=0;" edge="1" parent="1" source="xfQhk3VoaluE6TStIVvt-14" target="xfQhk3VoaluE6TStIVvt-19">
          <mxGeometry relative="1" as="geometry" />
        </mxCell>
        <mxCell id="xfQhk3VoaluE6TStIVvt-14" value="&lt;span style=&quot;white-space-collapse: preserve;&quot;&gt;&lt;font style=&quot;font-size: 12px;&quot; face=&quot;Helvetica&quot;&gt;Provider&lt;/font&gt;&lt;/span&gt;" style="rounded=1;whiteSpace=wrap;html=1;" vertex="1" parent="1">
          <mxGeometry x="365" y="350" width="120" height="60" as="geometry" />
        </mxCell>
        <mxCell id="xfQhk3VoaluE6TStIVvt-18" style="edgeStyle=orthogonalEdgeStyle;rounded=0;orthogonalLoop=1;jettySize=auto;html=1;entryX=0;entryY=0.5;entryDx=0;entryDy=0;" edge="1" parent="1" source="xfQhk3VoaluE6TStIVvt-15" target="xfQhk3VoaluE6TStIVvt-14">
          <mxGeometry relative="1" as="geometry" />
        </mxCell>
        <mxCell id="xfQhk3VoaluE6TStIVvt-15" value="Client" style="whiteSpace=wrap;html=1;aspect=fixed;" vertex="1" parent="1">
          <mxGeometry x="90" y="310" width="140" height="140" as="geometry" />
        </mxCell>
        <mxCell id="xfQhk3VoaluE6TStIVvt-19" value="Node" style="whiteSpace=wrap;html=1;aspect=fixed;" vertex="1" parent="1">
          <mxGeometry x="620" y="310" width="140" height="140" as="geometry" />
        </mxCell>
        <mxCell id="xfQhk3VoaluE6TStIVvt-21" value="RPC&lt;br&gt;&lt;span id=&quot;docs-internal-guid-387a9d9a-7fff-67b6-796c-e1688d9cdb20&quot;&gt;&lt;span style=&quot;background-color: transparent; font-variant-numeric: normal; font-variant-east-asian: normal; font-variant-alternates: normal; font-variant-position: normal; vertical-align: baseline; white-space-collapse: preserve;&quot;&gt;&lt;font style=&quot;font-size: 11px;&quot;&gt;ryt_sendTransaction&lt;/font&gt;&lt;/span&gt;&lt;/span&gt;" style="rounded=1;whiteSpace=wrap;html=1;" vertex="1" parent="1">
          <mxGeometry x="355" y="421" width="140" height="40" as="geometry" />
        </mxCell>
        <mxCell id="xfQhk3VoaluE6TStIVvt-23" value="Transaction&lt;br&gt;Send" style="rounded=1;whiteSpace=wrap;html=1;" vertex="1" parent="1">
          <mxGeometry x="510" y="421" width="100" height="40" as="geometry" />
        </mxCell>
        <mxCell id="xfQhk3VoaluE6TStIVvt-24" value="Transaction&lt;br&gt;Creation" style="rounded=1;whiteSpace=wrap;html=1;" vertex="1" parent="1">
          <mxGeometry x="240" y="421" width="100" height="40" as="geometry" />
        </mxCell>
        <mxCell id="xfQhk3VoaluE6TStIVvt-25" value="Event&amp;nbsp;&lt;br&gt;Emission" style="rounded=1;whiteSpace=wrap;html=1;" vertex="1" parent="1">
          <mxGeometry x="510" y="300" width="100" height="40" as="geometry" />
        </mxCell>
        <mxCell id="xfQhk3VoaluE6TStIVvt-27" value="Event&amp;nbsp;&lt;br&gt;Listener" style="rounded=1;whiteSpace=wrap;html=1;" vertex="1" parent="1">
          <mxGeometry x="240" y="300" width="100" height="40" as="geometry" />
        </mxCell>
      </root>
    </mxGraphModel>
  </diagram>
</mxfile>
